solid spouted_bed_V_3d
  facet normal 8.651348e-01 -4.994858e-01 4.533979e-02
    outer loop
      vertex 4.750000e-03 0.000000e+00 0.000000e+00
      vertex 3.800000e-02 5.759069e-02 0.000000e+00
      vertex 3.779183e-02 5.759069e-02 3.972082e-03
    endloop
  endfacet
  facet normal 8.651348e-01 -4.994858e-01 4.533979e-02
    outer loop
      vertex 4.750000e-03 0.000000e+00 0.000000e+00
      vertex 3.779183e-02 5.759069e-02 3.972082e-03
      vertex 4.723979e-03 0.000000e+00 4.965102e-04
    endloop
  endfacet
  facet normal 8.556562e-01 -4.994858e-01 1.355226e-01
    outer loop
      vertex 4.723979e-03 0.000000e+00 4.965102e-04
      vertex 3.779183e-02 5.759069e-02 3.972082e-03
      vertex 3.716961e-02 5.759069e-02 7.900644e-03
    endloop
  endfacet
  facet normal 8.556562e-01 -4.994858e-01 1.355226e-01
    outer loop
      vertex 4.723979e-03 0.000000e+00 4.965102e-04
      vertex 3.716961e-02 5.759069e-02 7.900644e-03
      vertex 4.646201e-03 0.000000e+00 9.875805e-04
    endloop
  endfacet
  facet normal 8.368029e-01 -4.994858e-01 2.242207e-01
    outer loop
      vertex 4.646201e-03 0.000000e+00 9.875805e-04
      vertex 3.716961e-02 5.759069e-02 7.900644e-03
      vertex 3.614015e-02 5.759069e-02 1.174265e-02
    endloop
  endfacet
  facet normal 8.368029e-01 -4.994858e-01 2.242207e-01
    outer loop
      vertex 4.646201e-03 0.000000e+00 9.875805e-04
      vertex 3.614015e-02 5.759069e-02 1.174265e-02
      vertex 4.517518e-03 0.000000e+00 1.467831e-03
    endloop
  endfacet
  facet normal 8.087813e-01 -4.994858e-01 3.104621e-01
    outer loop
      vertex 4.517518e-03 0.000000e+00 1.467831e-03
      vertex 3.614015e-02 5.759069e-02 1.174265e-02
      vertex 3.471473e-02 5.759069e-02 1.545599e-02
    endloop
  endfacet
  facet normal 8.087813e-01 -4.994858e-01 3.104621e-01
    outer loop
      vertex 4.517518e-03 0.000000e+00 1.467831e-03
      vertex 3.471473e-02 5.759069e-02 1.545599e-02
      vertex 4.339341e-03 0.000000e+00 1.931999e-03
    endloop
  endfacet
  facet normal 7.718986e-01 -4.994858e-01 3.933020e-01
    outer loop
      vertex 4.339341e-03 0.000000e+00 1.931999e-03
      vertex 3.471473e-02 5.759069e-02 1.545599e-02
      vertex 3.290897e-02 5.759069e-02 1.900000e-02
    endloop
  endfacet
  facet normal 7.718986e-01 -4.994858e-01 3.933020e-01
    outer loop
      vertex 4.339341e-03 0.000000e+00 1.931999e-03
      vertex 3.290897e-02 5.759069e-02 1.900000e-02
      vertex 4.113621e-03 0.000000e+00 2.375000e-03
    endloop
  endfacet
  facet normal 7.265588e-01 -4.994858e-01 4.718328e-01
    outer loop
      vertex 4.113621e-03 0.000000e+00 2.375000e-03
      vertex 3.290897e-02 5.759069e-02 1.900000e-02
      vertex 3.074265e-02 5.759069e-02 2.233584e-02
    endloop
  endfacet
  facet normal 7.265588e-01 -4.994858e-01 4.718328e-01
    outer loop
      vertex 4.113621e-03 0.000000e+00 2.375000e-03
      vertex 3.074265e-02 5.759069e-02 2.233584e-02
      vertex 3.842831e-03 0.000000e+00 2.791980e-03
    endloop
  endfacet
  facet normal 6.732587e-01 -4.994858e-01 5.451941e-01
    outer loop
      vertex 3.842831e-03 0.000000e+00 2.791980e-03
      vertex 3.074265e-02 5.759069e-02 2.233584e-02
      vertex 2.823950e-02 5.759069e-02 2.542696e-02
    endloop
  endfacet
  facet normal 6.732587e-01 -4.994858e-01 5.451941e-01
    outer loop
      vertex 3.842831e-03 0.000000e+00 2.791980e-03
      vertex 2.823950e-02 5.759069e-02 2.542696e-02
      vertex 3.529938e-03 0.000000e+00 3.178370e-03
    endloop
  endfacet
  facet normal 6.125822e-01 -4.994858e-01 6.125822e-01
    outer loop
      vertex 3.529938e-03 0.000000e+00 3.178370e-03
      vertex 2.823950e-02 5.759069e-02 2.542696e-02
      vertex 2.542696e-02 5.759069e-02 2.823950e-02
    endloop
  endfacet
  facet normal 6.125822e-01 -4.994858e-01 6.125822e-01
    outer loop
      vertex 3.529938e-03 0.000000e+00 3.178370e-03
      vertex 2.542696e-02 5.759069e-02 2.823950e-02
      vertex 3.178370e-03 0.000000e+00 3.529938e-03
    endloop
  endfacet
  facet normal 5.451941e-01 -4.994858e-01 6.732587e-01
    outer loop
      vertex 3.178370e-03 0.000000e+00 3.529938e-03
      vertex 2.542696e-02 5.759069e-02 2.823950e-02
      vertex 2.233584e-02 5.759069e-02 3.074265e-02
    endloop
  endfacet
  facet normal 5.451941e-01 -4.994858e-01 6.732587e-01
    outer loop
      vertex 3.178370e-03 0.000000e+00 3.529938e-03
      vertex 2.233584e-02 5.759069e-02 3.074265e-02
      vertex 2.791980e-03 0.000000e+00 3.842831e-03
    endloop
  endfacet
  facet normal 4.718328e-01 -4.994858e-01 7.265588e-01
    outer loop
      vertex 2.791980e-03 0.000000e+00 3.842831e-03
      vertex 2.233584e-02 5.759069e-02 3.074265e-02
      vertex 1.900000e-02 5.759069e-02 3.290897e-02
    endloop
  endfacet
  facet normal 4.718328e-01 -4.994858e-01 7.265588e-01
    outer loop
      vertex 2.791980e-03 0.000000e+00 3.842831e-03
      vertex 1.900000e-02 5.759069e-02 3.290897e-02
      vertex 2.375000e-03 0.000000e+00 4.113621e-03
    endloop
  endfacet
  facet normal 3.933020e-01 -4.994858e-01 7.718986e-01
    outer loop
      vertex 2.375000e-03 0.000000e+00 4.113621e-03
      vertex 1.900000e-02 5.759069e-02 3.290897e-02
      vertex 1.545599e-02 5.759069e-02 3.471473e-02
    endloop
  endfacet
  facet normal 3.933020e-01 -4.994858e-01 7.718986e-01
    outer loop
      vertex 2.375000e-03 0.000000e+00 4.113621e-03
      vertex 1.545599e-02 5.759069e-02 3.471473e-02
      vertex 1.931999e-03 0.000000e+00 4.339341e-03
    endloop
  endfacet
  facet normal 3.104621e-01 -4.994858e-01 8.087813e-01
    outer loop
      vertex 1.931999e-03 0.000000e+00 4.339341e-03
      vertex 1.545599e-02 5.759069e-02 3.471473e-02
      vertex 1.174265e-02 5.759069e-02 3.614015e-02
    endloop
  endfacet
  facet normal 3.104621e-01 -4.994858e-01 8.087813e-01
    outer loop
      vertex 1.931999e-03 0.000000e+00 4.339341e-03
      vertex 1.174265e-02 5.759069e-02 3.614015e-02
      vertex 1.467831e-03 0.000000e+00 4.517518e-03
    endloop
  endfacet
  facet normal 2.242207e-01 -4.994858e-01 8.368029e-01
    outer loop
      vertex 1.467831e-03 0.000000e+00 4.517518e-03
      vertex 1.174265e-02 5.759069e-02 3.614015e-02
      vertex 7.900644e-03 5.759069e-02 3.716961e-02
    endloop
  endfacet
  facet normal 2.242207e-01 -4.994858e-01 8.368029e-01
    outer loop
      vertex 1.467831e-03 0.000000e+00 4.517518e-03
      vertex 7.900644e-03 5.759069e-02 3.716961e-02
      vertex 9.875805e-04 0.000000e+00 4.646201e-03
    endloop
  endfacet
  facet normal 1.355226e-01 -4.994858e-01 8.556562e-01
    outer loop
      vertex 9.875805e-04 0.000000e+00 4.646201e-03
      vertex 7.900644e-03 5.759069e-02 3.716961e-02
      vertex 3.972082e-03 5.759069e-02 3.779183e-02
    endloop
  endfacet
  facet normal 1.355226e-01 -4.994858e-01 8.556562e-01
    outer loop
      vertex 9.875805e-04 0.000000e+00 4.646201e-03
      vertex 3.972082e-03 5.759069e-02 3.779183e-02
      vertex 4.965102e-04 0.000000e+00 4.723979e-03
    endloop
  endfacet
  facet normal 4.533979e-02 -4.994858e-01 8.651348e-01
    outer loop
      vertex 4.965102e-04 0.000000e+00 4.723979e-03
      vertex 3.972082e-03 5.759069e-02 3.779183e-02
      vertex 2.326829e-18 5.759069e-02 3.800000e-02
    endloop
  endfacet
  facet normal 4.533979e-02 -4.994858e-01 8.651348e-01
    outer loop
      vertex 4.965102e-04 0.000000e+00 4.723979e-03
      vertex 2.326829e-18 5.759069e-02 3.800000e-02
      vertex 2.908536e-19 0.000000e+00 4.750000e-03
    endloop
  endfacet
  facet normal -4.533979e-02 -4.994858e-01 8.651348e-01
    outer loop
      vertex 2.908536e-19 0.000000e+00 4.750000e-03
      vertex 2.326829e-18 5.759069e-02 3.800000e-02
      vertex -3.972082e-03 5.759069e-02 3.779183e-02
    endloop
  endfacet
  facet normal -4.533979e-02 -4.994858e-01 8.651348e-01
    outer loop
      vertex 2.908536e-19 0.000000e+00 4.750000e-03
      vertex -3.972082e-03 5.759069e-02 3.779183e-02
      vertex -4.965102e-04 0.000000e+00 4.723979e-03
    endloop
  endfacet
  facet normal -1.355226e-01 -4.994858e-01 8.556562e-01
    outer loop
      vertex -4.965102e-04 0.000000e+00 4.723979e-03
      vertex -3.972082e-03 5.759069e-02 3.779183e-02
      vertex -7.900644e-03 5.759069e-02 3.716961e-02
    endloop
  endfacet
  facet normal -1.355226e-01 -4.994858e-01 8.556562e-01
    outer loop
      vertex -4.965102e-04 0.000000e+00 4.723979e-03
      vertex -7.900644e-03 5.759069e-02 3.716961e-02
      vertex -9.875805e-04 0.000000e+00 4.646201e-03
    endloop
  endfacet
  facet normal -2.242207e-01 -4.994858e-01 8.368029e-01
    outer loop
      vertex -9.875805e-04 0.000000e+00 4.646201e-03
      vertex -7.900644e-03 5.759069e-02 3.716961e-02
      vertex -1.174265e-02 5.759069e-02 3.614015e-02
    endloop
  endfacet
  facet normal -2.242207e-01 -4.994858e-01 8.368029e-01
    outer loop
      vertex -9.875805e-04 0.000000e+00 4.646201e-03
      vertex -1.174265e-02 5.759069e-02 3.614015e-02
      vertex -1.467831e-03 0.000000e+00 4.517518e-03
    endloop
  endfacet
  facet normal -3.104621e-01 -4.994858e-01 8.087813e-01
    outer loop
      vertex -1.467831e-03 0.000000e+00 4.517518e-03
      vertex -1.174265e-02 5.759069e-02 3.614015e-02
      vertex -1.545599e-02 5.759069e-02 3.471473e-02
    endloop
  endfacet
  facet normal -3.104621e-01 -4.994858e-01 8.087813e-01
    outer loop
      vertex -1.467831e-03 0.000000e+00 4.517518e-03
      vertex -1.545599e-02 5.759069e-02 3.471473e-02
      vertex -1.931999e-03 0.000000e+00 4.339341e-03
    endloop
  endfacet
  facet normal -3.933020e-01 -4.994858e-01 7.718986e-01
    outer loop
      vertex -1.931999e-03 0.000000e+00 4.339341e-03
      vertex -1.545599e-02 5.759069e-02 3.471473e-02
      vertex -1.900000e-02 5.759069e-02 3.290897e-02
    endloop
  endfacet
  facet normal -3.933020e-01 -4.994858e-01 7.718986e-01
    outer loop
      vertex -1.931999e-03 0.000000e+00 4.339341e-03
      vertex -1.900000e-02 5.759069e-02 3.290897e-02
      vertex -2.375000e-03 0.000000e+00 4.113621e-03
    endloop
  endfacet
  facet normal -4.718328e-01 -4.994858e-01 7.265588e-01
    outer loop
      vertex -2.375000e-03 0.000000e+00 4.113621e-03
      vertex -1.900000e-02 5.759069e-02 3.290897e-02
      vertex -2.233584e-02 5.759069e-02 3.074265e-02
    endloop
  endfacet
  facet normal -4.718328e-01 -4.994858e-01 7.265588e-01
    outer loop
      vertex -2.375000e-03 0.000000e+00 4.113621e-03
      vertex -2.233584e-02 5.759069e-02 3.074265e-02
      vertex -2.791980e-03 0.000000e+00 3.842831e-03
    endloop
  endfacet
  facet normal -5.451941e-01 -4.994858e-01 6.732587e-01
    outer loop
      vertex -2.791980e-03 0.000000e+00 3.842831e-03
      vertex -2.233584e-02 5.759069e-02 3.074265e-02
      vertex -2.542696e-02 5.759069e-02 2.823950e-02
    endloop
  endfacet
  facet normal -5.451941e-01 -4.994858e-01 6.732587e-01
    outer loop
      vertex -2.791980e-03 0.000000e+00 3.842831e-03
      vertex -2.542696e-02 5.759069e-02 2.823950e-02
      vertex -3.178370e-03 0.000000e+00 3.529938e-03
    endloop
  endfacet
  facet normal -6.125822e-01 -4.994858e-01 6.125822e-01
    outer loop
      vertex -3.178370e-03 0.000000e+00 3.529938e-03
      vertex -2.542696e-02 5.759069e-02 2.823950e-02
      vertex -2.823950e-02 5.759069e-02 2.542696e-02
    endloop
  endfacet
  facet normal -6.125822e-01 -4.994858e-01 6.125822e-01
    outer loop
      vertex -3.178370e-03 0.000000e+00 3.529938e-03
      vertex -2.823950e-02 5.759069e-02 2.542696e-02
      vertex -3.529938e-03 0.000000e+00 3.178370e-03
    endloop
  endfacet
  facet normal -6.732587e-01 -4.994858e-01 5.451941e-01
    outer loop
      vertex -3.529938e-03 0.000000e+00 3.178370e-03
      vertex -2.823950e-02 5.759069e-02 2.542696e-02
      vertex -3.074265e-02 5.759069e-02 2.233584e-02
    endloop
  endfacet
  facet normal -6.732587e-01 -4.994858e-01 5.451941e-01
    outer loop
      vertex -3.529938e-03 0.000000e+00 3.178370e-03
      vertex -3.074265e-02 5.759069e-02 2.233584e-02
      vertex -3.842831e-03 0.000000e+00 2.791980e-03
    endloop
  endfacet
  facet normal -7.265588e-01 -4.994858e-01 4.718328e-01
    outer loop
      vertex -3.842831e-03 0.000000e+00 2.791980e-03
      vertex -3.074265e-02 5.759069e-02 2.233584e-02
      vertex -3.290897e-02 5.759069e-02 1.900000e-02
    endloop
  endfacet
  facet normal -7.265588e-01 -4.994858e-01 4.718328e-01
    outer loop
      vertex -3.842831e-03 0.000000e+00 2.791980e-03
      vertex -3.290897e-02 5.759069e-02 1.900000e-02
      vertex -4.113621e-03 0.000000e+00 2.375000e-03
    endloop
  endfacet
  facet normal -7.718986e-01 -4.994858e-01 3.933020e-01
    outer loop
      vertex -4.113621e-03 0.000000e+00 2.375000e-03
      vertex -3.290897e-02 5.759069e-02 1.900000e-02
      vertex -3.471473e-02 5.759069e-02 1.545599e-02
    endloop
  endfacet
  facet normal -7.718986e-01 -4.994858e-01 3.933020e-01
    outer loop
      vertex -4.113621e-03 0.000000e+00 2.375000e-03
      vertex -3.471473e-02 5.759069e-02 1.545599e-02
      vertex -4.339341e-03 0.000000e+00 1.931999e-03
    endloop
  endfacet
  facet normal -8.087813e-01 -4.994858e-01 3.104621e-01
    outer loop
      vertex -4.339341e-03 0.000000e+00 1.931999e-03
      vertex -3.471473e-02 5.759069e-02 1.545599e-02
      vertex -3.614015e-02 5.759069e-02 1.174265e-02
    endloop
  endfacet
  facet normal -8.087813e-01 -4.994858e-01 3.104621e-01
    outer loop
      vertex -4.339341e-03 0.000000e+00 1.931999e-03
      vertex -3.614015e-02 5.759069e-02 1.174265e-02
      vertex -4.517518e-03 0.000000e+00 1.467831e-03
    endloop
  endfacet
  facet normal -8.368029e-01 -4.994858e-01 2.242207e-01
    outer loop
      vertex -4.517518e-03 0.000000e+00 1.467831e-03
      vertex -3.614015e-02 5.759069e-02 1.174265e-02
      vertex -3.716961e-02 5.759069e-02 7.900644e-03
    endloop
  endfacet
  facet normal -8.368029e-01 -4.994858e-01 2.242207e-01
    outer loop
      vertex -4.517518e-03 0.000000e+00 1.467831e-03
      vertex -3.716961e-02 5.759069e-02 7.900644e-03
      vertex -4.646201e-03 0.000000e+00 9.875805e-04
    endloop
  endfacet
  facet normal -8.556562e-01 -4.994858e-01 1.355226e-01
    outer loop
      vertex -4.646201e-03 0.000000e+00 9.875805e-04
      vertex -3.716961e-02 5.759069e-02 7.900644e-03
      vertex -3.779183e-02 5.759069e-02 3.972082e-03
    endloop
  endfacet
  facet normal -8.556562e-01 -4.994858e-01 1.355226e-01
    outer loop
      vertex -4.646201e-03 0.000000e+00 9.875805e-04
      vertex -3.779183e-02 5.759069e-02 3.972082e-03
      vertex -4.723979e-03 0.000000e+00 4.965102e-04
    endloop
  endfacet
  facet normal -8.651348e-01 -4.994858e-01 4.533979e-02
    outer loop
      vertex -4.723979e-03 0.000000e+00 4.965102e-04
      vertex -3.779183e-02 5.759069e-02 3.972082e-03
      vertex -3.800000e-02 5.759069e-02 4.653658e-18
    endloop
  endfacet
  facet normal -8.651348e-01 -4.994858e-01 4.533979e-02
    outer loop
      vertex -4.723979e-03 0.000000e+00 4.965102e-04
      vertex -3.800000e-02 5.759069e-02 4.653658e-18
      vertex -4.750000e-03 0.000000e+00 5.817072e-19
    endloop
  endfacet
  facet normal -8.651348e-01 -4.994858e-01 -4.533979e-02
    outer loop
      vertex -4.750000e-03 0.000000e+00 5.817072e-19
      vertex -3.800000e-02 5.759069e-02 4.653658e-18
      vertex -3.779183e-02 5.759069e-02 -3.972082e-03
    endloop
  endfacet
  facet normal -8.651348e-01 -4.994858e-01 -4.533979e-02
    outer loop
      vertex -4.750000e-03 0.000000e+00 5.817072e-19
      vertex -3.779183e-02 5.759069e-02 -3.972082e-03
      vertex -4.723979e-03 0.000000e+00 -4.965102e-04
    endloop
  endfacet
  facet normal -8.556562e-01 -4.994858e-01 -1.355226e-01
    outer loop
      vertex -4.723979e-03 0.000000e+00 -4.965102e-04
      vertex -3.779183e-02 5.759069e-02 -3.972082e-03
      vertex -3.716961e-02 5.759069e-02 -7.900644e-03
    endloop
  endfacet
  facet normal -8.556562e-01 -4.994858e-01 -1.355226e-01
    outer loop
      vertex -4.723979e-03 0.000000e+00 -4.965102e-04
      vertex -3.716961e-02 5.759069e-02 -7.900644e-03
      vertex -4.646201e-03 0.000000e+00 -9.875805e-04
    endloop
  endfacet
  facet normal -8.368029e-01 -4.994858e-01 -2.242207e-01
    outer loop
      vertex -4.646201e-03 0.000000e+00 -9.875805e-04
      vertex -3.716961e-02 5.759069e-02 -7.900644e-03
      vertex -3.614015e-02 5.759069e-02 -1.174265e-02
    endloop
  endfacet
  facet normal -8.368029e-01 -4.994858e-01 -2.242207e-01
    outer loop
      vertex -4.646201e-03 0.000000e+00 -9.875805e-04
      vertex -3.614015e-02 5.759069e-02 -1.174265e-02
      vertex -4.517518e-03 0.000000e+00 -1.467831e-03
    endloop
  endfacet
  facet normal -8.087813e-01 -4.994858e-01 -3.104621e-01
    outer loop
      vertex -4.517518e-03 0.000000e+00 -1.467831e-03
      vertex -3.614015e-02 5.759069e-02 -1.174265e-02
      vertex -3.471473e-02 5.759069e-02 -1.545599e-02
    endloop
  endfacet
  facet normal -8.087813e-01 -4.994858e-01 -3.104621e-01
    outer loop
      vertex -4.517518e-03 0.000000e+00 -1.467831e-03
      vertex -3.471473e-02 5.759069e-02 -1.545599e-02
      vertex -4.339341e-03 0.000000e+00 -1.931999e-03
    endloop
  endfacet
  facet normal -7.718986e-01 -4.994858e-01 -3.933020e-01
    outer loop
      vertex -4.339341e-03 0.000000e+00 -1.931999e-03
      vertex -3.471473e-02 5.759069e-02 -1.545599e-02
      vertex -3.290897e-02 5.759069e-02 -1.900000e-02
    endloop
  endfacet
  facet normal -7.718986e-01 -4.994858e-01 -3.933020e-01
    outer loop
      vertex -4.339341e-03 0.000000e+00 -1.931999e-03
      vertex -3.290897e-02 5.759069e-02 -1.900000e-02
      vertex -4.113621e-03 0.000000e+00 -2.375000e-03
    endloop
  endfacet
  facet normal -7.265588e-01 -4.994858e-01 -4.718328e-01
    outer loop
      vertex -4.113621e-03 0.000000e+00 -2.375000e-03
      vertex -3.290897e-02 5.759069e-02 -1.900000e-02
      vertex -3.074265e-02 5.759069e-02 -2.233584e-02
    endloop
  endfacet
  facet normal -7.265588e-01 -4.994858e-01 -4.718328e-01
    outer loop
      vertex -4.113621e-03 0.000000e+00 -2.375000e-03
      vertex -3.074265e-02 5.759069e-02 -2.233584e-02
      vertex -3.842831e-03 0.000000e+00 -2.791980e-03
    endloop
  endfacet
  facet normal -6.732587e-01 -4.994858e-01 -5.451941e-01
    outer loop
      vertex -3.842831e-03 0.000000e+00 -2.791980e-03
      vertex -3.074265e-02 5.759069e-02 -2.233584e-02
      vertex -2.823950e-02 5.759069e-02 -2.542696e-02
    endloop
  endfacet
  facet normal -6.732587e-01 -4.994858e-01 -5.451941e-01
    outer loop
      vertex -3.842831e-03 0.000000e+00 -2.791980e-03
      vertex -2.823950e-02 5.759069e-02 -2.542696e-02
      vertex -3.529938e-03 0.000000e+00 -3.178370e-03
    endloop
  endfacet
  facet normal -6.125822e-01 -4.994858e-01 -6.125822e-01
    outer loop
      vertex -3.529938e-03 0.000000e+00 -3.178370e-03
      vertex -2.823950e-02 5.759069e-02 -2.542696e-02
      vertex -2.542696e-02 5.759069e-02 -2.823950e-02
    endloop
  endfacet
  facet normal -6.125822e-01 -4.994858e-01 -6.125822e-01
    outer loop
      vertex -3.529938e-03 0.000000e+00 -3.178370e-03
      vertex -2.542696e-02 5.759069e-02 -2.823950e-02
      vertex -3.178370e-03 0.000000e+00 -3.529938e-03
    endloop
  endfacet
  facet normal -5.451941e-01 -4.994858e-01 -6.732587e-01
    outer loop
      vertex -3.178370e-03 0.000000e+00 -3.529938e-03
      vertex -2.542696e-02 5.759069e-02 -2.823950e-02
      vertex -2.233584e-02 5.759069e-02 -3.074265e-02
    endloop
  endfacet
  facet normal -5.451941e-01 -4.994858e-01 -6.732587e-01
    outer loop
      vertex -3.178370e-03 0.000000e+00 -3.529938e-03
      vertex -2.233584e-02 5.759069e-02 -3.074265e-02
      vertex -2.791980e-03 0.000000e+00 -3.842831e-03
    endloop
  endfacet
  facet normal -4.718328e-01 -4.994858e-01 -7.265588e-01
    outer loop
      vertex -2.791980e-03 0.000000e+00 -3.842831e-03
      vertex -2.233584e-02 5.759069e-02 -3.074265e-02
      vertex -1.900000e-02 5.759069e-02 -3.290897e-02
    endloop
  endfacet
  facet normal -4.718328e-01 -4.994858e-01 -7.265588e-01
    outer loop
      vertex -2.791980e-03 0.000000e+00 -3.842831e-03
      vertex -1.900000e-02 5.759069e-02 -3.290897e-02
      vertex -2.375000e-03 0.000000e+00 -4.113621e-03
    endloop
  endfacet
  facet normal -3.933020e-01 -4.994858e-01 -7.718986e-01
    outer loop
      vertex -2.375000e-03 0.000000e+00 -4.113621e-03
      vertex -1.900000e-02 5.759069e-02 -3.290897e-02
      vertex -1.545599e-02 5.759069e-02 -3.471473e-02
    endloop
  endfacet
  facet normal -3.933020e-01 -4.994858e-01 -7.718986e-01
    outer loop
      vertex -2.375000e-03 0.000000e+00 -4.113621e-03
      vertex -1.545599e-02 5.759069e-02 -3.471473e-02
      vertex -1.931999e-03 0.000000e+00 -4.339341e-03
    endloop
  endfacet
  facet normal -3.104621e-01 -4.994858e-01 -8.087813e-01
    outer loop
      vertex -1.931999e-03 0.000000e+00 -4.339341e-03
      vertex -1.545599e-02 5.759069e-02 -3.471473e-02
      vertex -1.174265e-02 5.759069e-02 -3.614015e-02
    endloop
  endfacet
  facet normal -3.104621e-01 -4.994858e-01 -8.087813e-01
    outer loop
      vertex -1.931999e-03 0.000000e+00 -4.339341e-03
      vertex -1.174265e-02 5.759069e-02 -3.614015e-02
      vertex -1.467831e-03 0.000000e+00 -4.517518e-03
    endloop
  endfacet
  facet normal -2.242207e-01 -4.994858e-01 -8.368029e-01
    outer loop
      vertex -1.467831e-03 0.000000e+00 -4.517518e-03
      vertex -1.174265e-02 5.759069e-02 -3.614015e-02
      vertex -7.900644e-03 5.759069e-02 -3.716961e-02
    endloop
  endfacet
  facet normal -2.242207e-01 -4.994858e-01 -8.368029e-01
    outer loop
      vertex -1.467831e-03 0.000000e+00 -4.517518e-03
      vertex -7.900644e-03 5.759069e-02 -3.716961e-02
      vertex -9.875805e-04 0.000000e+00 -4.646201e-03
    endloop
  endfacet
  facet normal -1.355226e-01 -4.994858e-01 -8.556562e-01
    outer loop
      vertex -9.875805e-04 0.000000e+00 -4.646201e-03
      vertex -7.900644e-03 5.759069e-02 -3.716961e-02
      vertex -3.972082e-03 5.759069e-02 -3.779183e-02
    endloop
  endfacet
  facet normal -1.355226e-01 -4.994858e-01 -8.556562e-01
    outer loop
      vertex -9.875805e-04 0.000000e+00 -4.646201e-03
      vertex -3.972082e-03 5.759069e-02 -3.779183e-02
      vertex -4.965102e-04 0.000000e+00 -4.723979e-03
    endloop
  endfacet
  facet normal -4.533979e-02 -4.994858e-01 -8.651348e-01
    outer loop
      vertex -4.965102e-04 0.000000e+00 -4.723979e-03
      vertex -3.972082e-03 5.759069e-02 -3.779183e-02
      vertex -6.980487e-18 5.759069e-02 -3.800000e-02
    endloop
  endfacet
  facet normal -4.533979e-02 -4.994858e-01 -8.651348e-01
    outer loop
      vertex -4.965102e-04 0.000000e+00 -4.723979e-03
      vertex -6.980487e-18 5.759069e-02 -3.800000e-02
      vertex -8.725608e-19 0.000000e+00 -4.750000e-03
    endloop
  endfacet
  facet normal 4.533979e-02 -4.994858e-01 -8.651348e-01
    outer loop
      vertex -8.725608e-19 0.000000e+00 -4.750000e-03
      vertex -6.980487e-18 5.759069e-02 -3.800000e-02
      vertex 3.972082e-03 5.759069e-02 -3.779183e-02
    endloop
  endfacet
  facet normal 4.533979e-02 -4.994858e-01 -8.651348e-01
    outer loop
      vertex -8.725608e-19 0.000000e+00 -4.750000e-03
      vertex 3.972082e-03 5.759069e-02 -3.779183e-02
      vertex 4.965102e-04 0.000000e+00 -4.723979e-03
    endloop
  endfacet
  facet normal 1.355226e-01 -4.994858e-01 -8.556562e-01
    outer loop
      vertex 4.965102e-04 0.000000e+00 -4.723979e-03
      vertex 3.972082e-03 5.759069e-02 -3.779183e-02
      vertex 7.900644e-03 5.759069e-02 -3.716961e-02
    endloop
  endfacet
  facet normal 1.355226e-01 -4.994858e-01 -8.556562e-01
    outer loop
      vertex 4.965102e-04 0.000000e+00 -4.723979e-03
      vertex 7.900644e-03 5.759069e-02 -3.716961e-02
      vertex 9.875805e-04 0.000000e+00 -4.646201e-03
    endloop
  endfacet
  facet normal 2.242207e-01 -4.994858e-01 -8.368029e-01
    outer loop
      vertex 9.875805e-04 0.000000e+00 -4.646201e-03
      vertex 7.900644e-03 5.759069e-02 -3.716961e-02
      vertex 1.174265e-02 5.759069e-02 -3.614015e-02
    endloop
  endfacet
  facet normal 2.242207e-01 -4.994858e-01 -8.368029e-01
    outer loop
      vertex 9.875805e-04 0.000000e+00 -4.646201e-03
      vertex 1.174265e-02 5.759069e-02 -3.614015e-02
      vertex 1.467831e-03 0.000000e+00 -4.517518e-03
    endloop
  endfacet
  facet normal 3.104621e-01 -4.994858e-01 -8.087813e-01
    outer loop
      vertex 1.467831e-03 0.000000e+00 -4.517518e-03
      vertex 1.174265e-02 5.759069e-02 -3.614015e-02
      vertex 1.545599e-02 5.759069e-02 -3.471473e-02
    endloop
  endfacet
  facet normal 3.104621e-01 -4.994858e-01 -8.087813e-01
    outer loop
      vertex 1.467831e-03 0.000000e+00 -4.517518e-03
      vertex 1.545599e-02 5.759069e-02 -3.471473e-02
      vertex 1.931999e-03 0.000000e+00 -4.339341e-03
    endloop
  endfacet
  facet normal 3.933020e-01 -4.994858e-01 -7.718986e-01
    outer loop
      vertex 1.931999e-03 0.000000e+00 -4.339341e-03
      vertex 1.545599e-02 5.759069e-02 -3.471473e-02
      vertex 1.900000e-02 5.759069e-02 -3.290897e-02
    endloop
  endfacet
  facet normal 3.933020e-01 -4.994858e-01 -7.718986e-01
    outer loop
      vertex 1.931999e-03 0.000000e+00 -4.339341e-03
      vertex 1.900000e-02 5.759069e-02 -3.290897e-02
      vertex 2.375000e-03 0.000000e+00 -4.113621e-03
    endloop
  endfacet
  facet normal 4.718328e-01 -4.994858e-01 -7.265588e-01
    outer loop
      vertex 2.375000e-03 0.000000e+00 -4.113621e-03
      vertex 1.900000e-02 5.759069e-02 -3.290897e-02
      vertex 2.233584e-02 5.759069e-02 -3.074265e-02
    endloop
  endfacet
  facet normal 4.718328e-01 -4.994858e-01 -7.265588e-01
    outer loop
      vertex 2.375000e-03 0.000000e+00 -4.113621e-03
      vertex 2.233584e-02 5.759069e-02 -3.074265e-02
      vertex 2.791980e-03 0.000000e+00 -3.842831e-03
    endloop
  endfacet
  facet normal 5.451941e-01 -4.994858e-01 -6.732587e-01
    outer loop
      vertex 2.791980e-03 0.000000e+00 -3.842831e-03
      vertex 2.233584e-02 5.759069e-02 -3.074265e-02
      vertex 2.542696e-02 5.759069e-02 -2.823950e-02
    endloop
  endfacet
  facet normal 5.451941e-01 -4.994858e-01 -6.732587e-01
    outer loop
      vertex 2.791980e-03 0.000000e+00 -3.842831e-03
      vertex 2.542696e-02 5.759069e-02 -2.823950e-02
      vertex 3.178370e-03 0.000000e+00 -3.529938e-03
    endloop
  endfacet
  facet normal 6.125822e-01 -4.994858e-01 -6.125822e-01
    outer loop
      vertex 3.178370e-03 0.000000e+00 -3.529938e-03
      vertex 2.542696e-02 5.759069e-02 -2.823950e-02
      vertex 2.823950e-02 5.759069e-02 -2.542696e-02
    endloop
  endfacet
  facet normal 6.125822e-01 -4.994858e-01 -6.125822e-01
    outer loop
      vertex 3.178370e-03 0.000000e+00 -3.529938e-03
      vertex 2.823950e-02 5.759069e-02 -2.542696e-02
      vertex 3.529938e-03 0.000000e+00 -3.178370e-03
    endloop
  endfacet
  facet normal 6.732587e-01 -4.994858e-01 -5.451941e-01
    outer loop
      vertex 3.529938e-03 0.000000e+00 -3.178370e-03
      vertex 2.823950e-02 5.759069e-02 -2.542696e-02
      vertex 3.074265e-02 5.759069e-02 -2.233584e-02
    endloop
  endfacet
  facet normal 6.732587e-01 -4.994858e-01 -5.451941e-01
    outer loop
      vertex 3.529938e-03 0.000000e+00 -3.178370e-03
      vertex 3.074265e-02 5.759069e-02 -2.233584e-02
      vertex 3.842831e-03 0.000000e+00 -2.791980e-03
    endloop
  endfacet
  facet normal 7.265588e-01 -4.994858e-01 -4.718328e-01
    outer loop
      vertex 3.842831e-03 0.000000e+00 -2.791980e-03
      vertex 3.074265e-02 5.759069e-02 -2.233584e-02
      vertex 3.290897e-02 5.759069e-02 -1.900000e-02
    endloop
  endfacet
  facet normal 7.265588e-01 -4.994858e-01 -4.718328e-01
    outer loop
      vertex 3.842831e-03 0.000000e+00 -2.791980e-03
      vertex 3.290897e-02 5.759069e-02 -1.900000e-02
      vertex 4.113621e-03 0.000000e+00 -2.375000e-03
    endloop
  endfacet
  facet normal 7.718986e-01 -4.994858e-01 -3.933020e-01
    outer loop
      vertex 4.113621e-03 0.000000e+00 -2.375000e-03
      vertex 3.290897e-02 5.759069e-02 -1.900000e-02
      vertex 3.471473e-02 5.759069e-02 -1.545599e-02
    endloop
  endfacet
  facet normal 7.718986e-01 -4.994858e-01 -3.933020e-01
    outer loop
      vertex 4.113621e-03 0.000000e+00 -2.375000e-03
      vertex 3.471473e-02 5.759069e-02 -1.545599e-02
      vertex 4.339341e-03 0.000000e+00 -1.931999e-03
    endloop
  endfacet
  facet normal 8.087813e-01 -4.994858e-01 -3.104621e-01
    outer loop
      vertex 4.339341e-03 0.000000e+00 -1.931999e-03
      vertex 3.471473e-02 5.759069e-02 -1.545599e-02
      vertex 3.614015e-02 5.759069e-02 -1.174265e-02
    endloop
  endfacet
  facet normal 8.087813e-01 -4.994858e-01 -3.104621e-01
    outer loop
      vertex 4.339341e-03 0.000000e+00 -1.931999e-03
      vertex 3.614015e-02 5.759069e-02 -1.174265e-02
      vertex 4.517518e-03 0.000000e+00 -1.467831e-03
    endloop
  endfacet
  facet normal 8.368029e-01 -4.994858e-01 -2.242207e-01
    outer loop
      vertex 4.517518e-03 0.000000e+00 -1.467831e-03
      vertex 3.614015e-02 5.759069e-02 -1.174265e-02
      vertex 3.716961e-02 5.759069e-02 -7.900644e-03
    endloop
  endfacet
  facet normal 8.368029e-01 -4.994858e-01 -2.242207e-01
    outer loop
      vertex 4.517518e-03 0.000000e+00 -1.467831e-03
      vertex 3.716961e-02 5.759069e-02 -7.900644e-03
      vertex 4.646201e-03 0.000000e+00 -9.875805e-04
    endloop
  endfacet
  facet normal 8.556562e-01 -4.994858e-01 -1.355226e-01
    outer loop
      vertex 4.646201e-03 0.000000e+00 -9.875805e-04
      vertex 3.716961e-02 5.759069e-02 -7.900644e-03
      vertex 3.779183e-02 5.759069e-02 -3.972082e-03
    endloop
  endfacet
  facet normal 8.556562e-01 -4.994858e-01 -1.355226e-01
    outer loop
      vertex 4.646201e-03 0.000000e+00 -9.875805e-04
      vertex 3.779183e-02 5.759069e-02 -3.972082e-03
      vertex 4.723979e-03 0.000000e+00 -4.965102e-04
    endloop
  endfacet
  facet normal 8.651348e-01 -4.994858e-01 -4.533979e-02
    outer loop
      vertex 4.723979e-03 0.000000e+00 -4.965102e-04
      vertex 3.779183e-02 5.759069e-02 -3.972082e-03
      vertex 3.800000e-02 5.759069e-02 -9.307316e-18
    endloop
  endfacet
  facet normal 8.651348e-01 -4.994858e-01 -4.533979e-02
    outer loop
      vertex 4.723979e-03 0.000000e+00 -4.965102e-04
      vertex 3.800000e-02 5.759069e-02 -9.307316e-18
      vertex 4.750000e-03 0.000000e+00 -1.163414e-18
    endloop
  endfacet
  facet normal 9.986295e-01 -0.000000e+00 5.233596e-02
    outer loop
      vertex 3.800000e-02 5.759069e-02 0.000000e+00
      vertex 3.800000e-02 4.000000e-01 0.000000e+00
      vertex 3.779183e-02 4.000000e-01 3.972082e-03
    endloop
  endfacet
  facet normal 9.986295e-01 0.000000e+00 5.233596e-02
    outer loop
      vertex 3.800000e-02 5.759069e-02 0.000000e+00
      vertex 3.779183e-02 4.000000e-01 3.972082e-03
      vertex 3.779183e-02 5.759069e-02 3.972082e-03
    endloop
  endfacet
  facet normal 9.876883e-01 -0.000000e+00 1.564345e-01
    outer loop
      vertex 3.779183e-02 5.759069e-02 3.972082e-03
      vertex 3.779183e-02 4.000000e-01 3.972082e-03
      vertex 3.716961e-02 4.000000e-01 7.900644e-03
    endloop
  endfacet
  facet normal 9.876883e-01 0.000000e+00 1.564345e-01
    outer loop
      vertex 3.779183e-02 5.759069e-02 3.972082e-03
      vertex 3.716961e-02 4.000000e-01 7.900644e-03
      vertex 3.716961e-02 5.759069e-02 7.900644e-03
    endloop
  endfacet
  facet normal 9.659258e-01 -0.000000e+00 2.588190e-01
    outer loop
      vertex 3.716961e-02 5.759069e-02 7.900644e-03
      vertex 3.716961e-02 4.000000e-01 7.900644e-03
      vertex 3.614015e-02 4.000000e-01 1.174265e-02
    endloop
  endfacet
  facet normal 9.659258e-01 0.000000e+00 2.588190e-01
    outer loop
      vertex 3.716961e-02 5.759069e-02 7.900644e-03
      vertex 3.614015e-02 4.000000e-01 1.174265e-02
      vertex 3.614015e-02 5.759069e-02 1.174265e-02
    endloop
  endfacet
  facet normal 9.335804e-01 -0.000000e+00 3.583679e-01
    outer loop
      vertex 3.614015e-02 5.759069e-02 1.174265e-02
      vertex 3.614015e-02 4.000000e-01 1.174265e-02
      vertex 3.471473e-02 4.000000e-01 1.545599e-02
    endloop
  endfacet
  facet normal 9.335804e-01 0.000000e+00 3.583679e-01
    outer loop
      vertex 3.614015e-02 5.759069e-02 1.174265e-02
      vertex 3.471473e-02 4.000000e-01 1.545599e-02
      vertex 3.471473e-02 5.759069e-02 1.545599e-02
    endloop
  endfacet
  facet normal 8.910065e-01 -0.000000e+00 4.539905e-01
    outer loop
      vertex 3.471473e-02 5.759069e-02 1.545599e-02
      vertex 3.471473e-02 4.000000e-01 1.545599e-02
      vertex 3.290897e-02 4.000000e-01 1.900000e-02
    endloop
  endfacet
  facet normal 8.910065e-01 0.000000e+00 4.539905e-01
    outer loop
      vertex 3.471473e-02 5.759069e-02 1.545599e-02
      vertex 3.290897e-02 4.000000e-01 1.900000e-02
      vertex 3.290897e-02 5.759069e-02 1.900000e-02
    endloop
  endfacet
  facet normal 8.386706e-01 -0.000000e+00 5.446390e-01
    outer loop
      vertex 3.290897e-02 5.759069e-02 1.900000e-02
      vertex 3.290897e-02 4.000000e-01 1.900000e-02
      vertex 3.074265e-02 4.000000e-01 2.233584e-02
    endloop
  endfacet
  facet normal 8.386706e-01 0.000000e+00 5.446390e-01
    outer loop
      vertex 3.290897e-02 5.759069e-02 1.900000e-02
      vertex 3.074265e-02 4.000000e-01 2.233584e-02
      vertex 3.074265e-02 5.759069e-02 2.233584e-02
    endloop
  endfacet
  facet normal 7.771460e-01 -0.000000e+00 6.293204e-01
    outer loop
      vertex 3.074265e-02 5.759069e-02 2.233584e-02
      vertex 3.074265e-02 4.000000e-01 2.233584e-02
      vertex 2.823950e-02 4.000000e-01 2.542696e-02
    endloop
  endfacet
  facet normal 7.771460e-01 0.000000e+00 6.293204e-01
    outer loop
      vertex 3.074265e-02 5.759069e-02 2.233584e-02
      vertex 2.823950e-02 4.000000e-01 2.542696e-02
      vertex 2.823950e-02 5.759069e-02 2.542696e-02
    endloop
  endfacet
  facet normal 7.071068e-01 -0.000000e+00 7.071068e-01
    outer loop
      vertex 2.823950e-02 5.759069e-02 2.542696e-02
      vertex 2.823950e-02 4.000000e-01 2.542696e-02
      vertex 2.542696e-02 4.000000e-01 2.823950e-02
    endloop
  endfacet
  facet normal 7.071068e-01 0.000000e+00 7.071068e-01
    outer loop
      vertex 2.823950e-02 5.759069e-02 2.542696e-02
      vertex 2.542696e-02 4.000000e-01 2.823950e-02
      vertex 2.542696e-02 5.759069e-02 2.823950e-02
    endloop
  endfacet
  facet normal 6.293204e-01 -0.000000e+00 7.771460e-01
    outer loop
      vertex 2.542696e-02 5.759069e-02 2.823950e-02
      vertex 2.542696e-02 4.000000e-01 2.823950e-02
      vertex 2.233584e-02 4.000000e-01 3.074265e-02
    endloop
  endfacet
  facet normal 6.293204e-01 0.000000e+00 7.771460e-01
    outer loop
      vertex 2.542696e-02 5.759069e-02 2.823950e-02
      vertex 2.233584e-02 4.000000e-01 3.074265e-02
      vertex 2.233584e-02 5.759069e-02 3.074265e-02
    endloop
  endfacet
  facet normal 5.446390e-01 -0.000000e+00 8.386706e-01
    outer loop
      vertex 2.233584e-02 5.759069e-02 3.074265e-02
      vertex 2.233584e-02 4.000000e-01 3.074265e-02
      vertex 1.900000e-02 4.000000e-01 3.290897e-02
    endloop
  endfacet
  facet normal 5.446390e-01 0.000000e+00 8.386706e-01
    outer loop
      vertex 2.233584e-02 5.759069e-02 3.074265e-02
      vertex 1.900000e-02 4.000000e-01 3.290897e-02
      vertex 1.900000e-02 5.759069e-02 3.290897e-02
    endloop
  endfacet
  facet normal 4.539905e-01 -0.000000e+00 8.910065e-01
    outer loop
      vertex 1.900000e-02 5.759069e-02 3.290897e-02
      vertex 1.900000e-02 4.000000e-01 3.290897e-02
      vertex 1.545599e-02 4.000000e-01 3.471473e-02
    endloop
  endfacet
  facet normal 4.539905e-01 0.000000e+00 8.910065e-01
    outer loop
      vertex 1.900000e-02 5.759069e-02 3.290897e-02
      vertex 1.545599e-02 4.000000e-01 3.471473e-02
      vertex 1.545599e-02 5.759069e-02 3.471473e-02
    endloop
  endfacet
  facet normal 3.583679e-01 -0.000000e+00 9.335804e-01
    outer loop
      vertex 1.545599e-02 5.759069e-02 3.471473e-02
      vertex 1.545599e-02 4.000000e-01 3.471473e-02
      vertex 1.174265e-02 4.000000e-01 3.614015e-02
    endloop
  endfacet
  facet normal 3.583679e-01 0.000000e+00 9.335804e-01
    outer loop
      vertex 1.545599e-02 5.759069e-02 3.471473e-02
      vertex 1.174265e-02 4.000000e-01 3.614015e-02
      vertex 1.174265e-02 5.759069e-02 3.614015e-02
    endloop
  endfacet
  facet normal 2.588190e-01 -0.000000e+00 9.659258e-01
    outer loop
      vertex 1.174265e-02 5.759069e-02 3.614015e-02
      vertex 1.174265e-02 4.000000e-01 3.614015e-02
      vertex 7.900644e-03 4.000000e-01 3.716961e-02
    endloop
  endfacet
  facet normal 2.588190e-01 0.000000e+00 9.659258e-01
    outer loop
      vertex 1.174265e-02 5.759069e-02 3.614015e-02
      vertex 7.900644e-03 4.000000e-01 3.716961e-02
      vertex 7.900644e-03 5.759069e-02 3.716961e-02
    endloop
  endfacet
  facet normal 1.564345e-01 -0.000000e+00 9.876883e-01
    outer loop
      vertex 7.900644e-03 5.759069e-02 3.716961e-02
      vertex 7.900644e-03 4.000000e-01 3.716961e-02
      vertex 3.972082e-03 4.000000e-01 3.779183e-02
    endloop
  endfacet
  facet normal 1.564345e-01 0.000000e+00 9.876883e-01
    outer loop
      vertex 7.900644e-03 5.759069e-02 3.716961e-02
      vertex 3.972082e-03 4.000000e-01 3.779183e-02
      vertex 3.972082e-03 5.759069e-02 3.779183e-02
    endloop
  endfacet
  facet normal 5.233596e-02 -0.000000e+00 9.986295e-01
    outer loop
      vertex 3.972082e-03 5.759069e-02 3.779183e-02
      vertex 3.972082e-03 4.000000e-01 3.779183e-02
      vertex 2.326829e-18 4.000000e-01 3.800000e-02
    endloop
  endfacet
  facet normal 5.233596e-02 0.000000e+00 9.986295e-01
    outer loop
      vertex 3.972082e-03 5.759069e-02 3.779183e-02
      vertex 2.326829e-18 4.000000e-01 3.800000e-02
      vertex 2.326829e-18 5.759069e-02 3.800000e-02
    endloop
  endfacet
  facet normal -5.233596e-02 0.000000e+00 9.986295e-01
    outer loop
      vertex 2.326829e-18 5.759069e-02 3.800000e-02
      vertex 2.326829e-18 4.000000e-01 3.800000e-02
      vertex -3.972082e-03 4.000000e-01 3.779183e-02
    endloop
  endfacet
  facet normal -5.233596e-02 0.000000e+00 9.986295e-01
    outer loop
      vertex 2.326829e-18 5.759069e-02 3.800000e-02
      vertex -3.972082e-03 4.000000e-01 3.779183e-02
      vertex -3.972082e-03 5.759069e-02 3.779183e-02
    endloop
  endfacet
  facet normal -1.564345e-01 0.000000e+00 9.876883e-01
    outer loop
      vertex -3.972082e-03 5.759069e-02 3.779183e-02
      vertex -3.972082e-03 4.000000e-01 3.779183e-02
      vertex -7.900644e-03 4.000000e-01 3.716961e-02
    endloop
  endfacet
  facet normal -1.564345e-01 0.000000e+00 9.876883e-01
    outer loop
      vertex -3.972082e-03 5.759069e-02 3.779183e-02
      vertex -7.900644e-03 4.000000e-01 3.716961e-02
      vertex -7.900644e-03 5.759069e-02 3.716961e-02
    endloop
  endfacet
  facet normal -2.588190e-01 0.000000e+00 9.659258e-01
    outer loop
      vertex -7.900644e-03 5.759069e-02 3.716961e-02
      vertex -7.900644e-03 4.000000e-01 3.716961e-02
      vertex -1.174265e-02 4.000000e-01 3.614015e-02
    endloop
  endfacet
  facet normal -2.588190e-01 0.000000e+00 9.659258e-01
    outer loop
      vertex -7.900644e-03 5.759069e-02 3.716961e-02
      vertex -1.174265e-02 4.000000e-01 3.614015e-02
      vertex -1.174265e-02 5.759069e-02 3.614015e-02
    endloop
  endfacet
  facet normal -3.583679e-01 0.000000e+00 9.335804e-01
    outer loop
      vertex -1.174265e-02 5.759069e-02 3.614015e-02
      vertex -1.174265e-02 4.000000e-01 3.614015e-02
      vertex -1.545599e-02 4.000000e-01 3.471473e-02
    endloop
  endfacet
  facet normal -3.583679e-01 0.000000e+00 9.335804e-01
    outer loop
      vertex -1.174265e-02 5.759069e-02 3.614015e-02
      vertex -1.545599e-02 4.000000e-01 3.471473e-02
      vertex -1.545599e-02 5.759069e-02 3.471473e-02
    endloop
  endfacet
  facet normal -4.539905e-01 0.000000e+00 8.910065e-01
    outer loop
      vertex -1.545599e-02 5.759069e-02 3.471473e-02
      vertex -1.545599e-02 4.000000e-01 3.471473e-02
      vertex -1.900000e-02 4.000000e-01 3.290897e-02
    endloop
  endfacet
  facet normal -4.539905e-01 0.000000e+00 8.910065e-01
    outer loop
      vertex -1.545599e-02 5.759069e-02 3.471473e-02
      vertex -1.900000e-02 4.000000e-01 3.290897e-02
      vertex -1.900000e-02 5.759069e-02 3.290897e-02
    endloop
  endfacet
  facet normal -5.446390e-01 0.000000e+00 8.386706e-01
    outer loop
      vertex -1.900000e-02 5.759069e-02 3.290897e-02
      vertex -1.900000e-02 4.000000e-01 3.290897e-02
      vertex -2.233584e-02 4.000000e-01 3.074265e-02
    endloop
  endfacet
  facet normal -5.446390e-01 0.000000e+00 8.386706e-01
    outer loop
      vertex -1.900000e-02 5.759069e-02 3.290897e-02
      vertex -2.233584e-02 4.000000e-01 3.074265e-02
      vertex -2.233584e-02 5.759069e-02 3.074265e-02
    endloop
  endfacet
  facet normal -6.293204e-01 0.000000e+00 7.771460e-01
    outer loop
      vertex -2.233584e-02 5.759069e-02 3.074265e-02
      vertex -2.233584e-02 4.000000e-01 3.074265e-02
      vertex -2.542696e-02 4.000000e-01 2.823950e-02
    endloop
  endfacet
  facet normal -6.293204e-01 0.000000e+00 7.771460e-01
    outer loop
      vertex -2.233584e-02 5.759069e-02 3.074265e-02
      vertex -2.542696e-02 4.000000e-01 2.823950e-02
      vertex -2.542696e-02 5.759069e-02 2.823950e-02
    endloop
  endfacet
  facet normal -7.071068e-01 0.000000e+00 7.071068e-01
    outer loop
      vertex -2.542696e-02 5.759069e-02 2.823950e-02
      vertex -2.542696e-02 4.000000e-01 2.823950e-02
      vertex -2.823950e-02 4.000000e-01 2.542696e-02
    endloop
  endfacet
  facet normal -7.071068e-01 0.000000e+00 7.071068e-01
    outer loop
      vertex -2.542696e-02 5.759069e-02 2.823950e-02
      vertex -2.823950e-02 4.000000e-01 2.542696e-02
      vertex -2.823950e-02 5.759069e-02 2.542696e-02
    endloop
  endfacet
  facet normal -7.771460e-01 0.000000e+00 6.293204e-01
    outer loop
      vertex -2.823950e-02 5.759069e-02 2.542696e-02
      vertex -2.823950e-02 4.000000e-01 2.542696e-02
      vertex -3.074265e-02 4.000000e-01 2.233584e-02
    endloop
  endfacet
  facet normal -7.771460e-01 0.000000e+00 6.293204e-01
    outer loop
      vertex -2.823950e-02 5.759069e-02 2.542696e-02
      vertex -3.074265e-02 4.000000e-01 2.233584e-02
      vertex -3.074265e-02 5.759069e-02 2.233584e-02
    endloop
  endfacet
  facet normal -8.386706e-01 0.000000e+00 5.446390e-01
    outer loop
      vertex -3.074265e-02 5.759069e-02 2.233584e-02
      vertex -3.074265e-02 4.000000e-01 2.233584e-02
      vertex -3.290897e-02 4.000000e-01 1.900000e-02
    endloop
  endfacet
  facet normal -8.386706e-01 0.000000e+00 5.446390e-01
    outer loop
      vertex -3.074265e-02 5.759069e-02 2.233584e-02
      vertex -3.290897e-02 4.000000e-01 1.900000e-02
      vertex -3.290897e-02 5.759069e-02 1.900000e-02
    endloop
  endfacet
  facet normal -8.910065e-01 0.000000e+00 4.539905e-01
    outer loop
      vertex -3.290897e-02 5.759069e-02 1.900000e-02
      vertex -3.290897e-02 4.000000e-01 1.900000e-02
      vertex -3.471473e-02 4.000000e-01 1.545599e-02
    endloop
  endfacet
  facet normal -8.910065e-01 0.000000e+00 4.539905e-01
    outer loop
      vertex -3.290897e-02 5.759069e-02 1.900000e-02
      vertex -3.471473e-02 4.000000e-01 1.545599e-02
      vertex -3.471473e-02 5.759069e-02 1.545599e-02
    endloop
  endfacet
  facet normal -9.335804e-01 0.000000e+00 3.583679e-01
    outer loop
      vertex -3.471473e-02 5.759069e-02 1.545599e-02
      vertex -3.471473e-02 4.000000e-01 1.545599e-02
      vertex -3.614015e-02 4.000000e-01 1.174265e-02
    endloop
  endfacet
  facet normal -9.335804e-01 0.000000e+00 3.583679e-01
    outer loop
      vertex -3.471473e-02 5.759069e-02 1.545599e-02
      vertex -3.614015e-02 4.000000e-01 1.174265e-02
      vertex -3.614015e-02 5.759069e-02 1.174265e-02
    endloop
  endfacet
  facet normal -9.659258e-01 0.000000e+00 2.588190e-01
    outer loop
      vertex -3.614015e-02 5.759069e-02 1.174265e-02
      vertex -3.614015e-02 4.000000e-01 1.174265e-02
      vertex -3.716961e-02 4.000000e-01 7.900644e-03
    endloop
  endfacet
  facet normal -9.659258e-01 0.000000e+00 2.588190e-01
    outer loop
      vertex -3.614015e-02 5.759069e-02 1.174265e-02
      vertex -3.716961e-02 4.000000e-01 7.900644e-03
      vertex -3.716961e-02 5.759069e-02 7.900644e-03
    endloop
  endfacet
  facet normal -9.876883e-01 0.000000e+00 1.564345e-01
    outer loop
      vertex -3.716961e-02 5.759069e-02 7.900644e-03
      vertex -3.716961e-02 4.000000e-01 7.900644e-03
      vertex -3.779183e-02 4.000000e-01 3.972082e-03
    endloop
  endfacet
  facet normal -9.876883e-01 0.000000e+00 1.564345e-01
    outer loop
      vertex -3.716961e-02 5.759069e-02 7.900644e-03
      vertex -3.779183e-02 4.000000e-01 3.972082e-03
      vertex -3.779183e-02 5.759069e-02 3.972082e-03
    endloop
  endfacet
  facet normal -9.986295e-01 0.000000e+00 5.233596e-02
    outer loop
      vertex -3.779183e-02 5.759069e-02 3.972082e-03
      vertex -3.779183e-02 4.000000e-01 3.972082e-03
      vertex -3.800000e-02 4.000000e-01 4.653658e-18
    endloop
  endfacet
  facet normal -9.986295e-01 0.000000e+00 5.233596e-02
    outer loop
      vertex -3.779183e-02 5.759069e-02 3.972082e-03
      vertex -3.800000e-02 4.000000e-01 4.653658e-18
      vertex -3.800000e-02 5.759069e-02 4.653658e-18
    endloop
  endfacet
  facet normal -9.986295e-01 0.000000e+00 -5.233596e-02
    outer loop
      vertex -3.800000e-02 5.759069e-02 4.653658e-18
      vertex -3.800000e-02 4.000000e-01 4.653658e-18
      vertex -3.779183e-02 4.000000e-01 -3.972082e-03
    endloop
  endfacet
  facet normal -9.986295e-01 0.000000e+00 -5.233596e-02
    outer loop
      vertex -3.800000e-02 5.759069e-02 4.653658e-18
      vertex -3.779183e-02 4.000000e-01 -3.972082e-03
      vertex -3.779183e-02 5.759069e-02 -3.972082e-03
    endloop
  endfacet
  facet normal -9.876883e-01 0.000000e+00 -1.564345e-01
    outer loop
      vertex -3.779183e-02 5.759069e-02 -3.972082e-03
      vertex -3.779183e-02 4.000000e-01 -3.972082e-03
      vertex -3.716961e-02 4.000000e-01 -7.900644e-03
    endloop
  endfacet
  facet normal -9.876883e-01 0.000000e+00 -1.564345e-01
    outer loop
      vertex -3.779183e-02 5.759069e-02 -3.972082e-03
      vertex -3.716961e-02 4.000000e-01 -7.900644e-03
      vertex -3.716961e-02 5.759069e-02 -7.900644e-03
    endloop
  endfacet
  facet normal -9.659258e-01 0.000000e+00 -2.588190e-01
    outer loop
      vertex -3.716961e-02 5.759069e-02 -7.900644e-03
      vertex -3.716961e-02 4.000000e-01 -7.900644e-03
      vertex -3.614015e-02 4.000000e-01 -1.174265e-02
    endloop
  endfacet
  facet normal -9.659258e-01 0.000000e+00 -2.588190e-01
    outer loop
      vertex -3.716961e-02 5.759069e-02 -7.900644e-03
      vertex -3.614015e-02 4.000000e-01 -1.174265e-02
      vertex -3.614015e-02 5.759069e-02 -1.174265e-02
    endloop
  endfacet
  facet normal -9.335804e-01 0.000000e+00 -3.583679e-01
    outer loop
      vertex -3.614015e-02 5.759069e-02 -1.174265e-02
      vertex -3.614015e-02 4.000000e-01 -1.174265e-02
      vertex -3.471473e-02 4.000000e-01 -1.545599e-02
    endloop
  endfacet
  facet normal -9.335804e-01 0.000000e+00 -3.583679e-01
    outer loop
      vertex -3.614015e-02 5.759069e-02 -1.174265e-02
      vertex -3.471473e-02 4.000000e-01 -1.545599e-02
      vertex -3.471473e-02 5.759069e-02 -1.545599e-02
    endloop
  endfacet
  facet normal -8.910065e-01 0.000000e+00 -4.539905e-01
    outer loop
      vertex -3.471473e-02 5.759069e-02 -1.545599e-02
      vertex -3.471473e-02 4.000000e-01 -1.545599e-02
      vertex -3.290897e-02 4.000000e-01 -1.900000e-02
    endloop
  endfacet
  facet normal -8.910065e-01 0.000000e+00 -4.539905e-01
    outer loop
      vertex -3.471473e-02 5.759069e-02 -1.545599e-02
      vertex -3.290897e-02 4.000000e-01 -1.900000e-02
      vertex -3.290897e-02 5.759069e-02 -1.900000e-02
    endloop
  endfacet
  facet normal -8.386706e-01 0.000000e+00 -5.446390e-01
    outer loop
      vertex -3.290897e-02 5.759069e-02 -1.900000e-02
      vertex -3.290897e-02 4.000000e-01 -1.900000e-02
      vertex -3.074265e-02 4.000000e-01 -2.233584e-02
    endloop
  endfacet
  facet normal -8.386706e-01 0.000000e+00 -5.446390e-01
    outer loop
      vertex -3.290897e-02 5.759069e-02 -1.900000e-02
      vertex -3.074265e-02 4.000000e-01 -2.233584e-02
      vertex -3.074265e-02 5.759069e-02 -2.233584e-02
    endloop
  endfacet
  facet normal -7.771460e-01 0.000000e+00 -6.293204e-01
    outer loop
      vertex -3.074265e-02 5.759069e-02 -2.233584e-02
      vertex -3.074265e-02 4.000000e-01 -2.233584e-02
      vertex -2.823950e-02 4.000000e-01 -2.542696e-02
    endloop
  endfacet
  facet normal -7.771460e-01 0.000000e+00 -6.293204e-01
    outer loop
      vertex -3.074265e-02 5.759069e-02 -2.233584e-02
      vertex -2.823950e-02 4.000000e-01 -2.542696e-02
      vertex -2.823950e-02 5.759069e-02 -2.542696e-02
    endloop
  endfacet
  facet normal -7.071068e-01 0.000000e+00 -7.071068e-01
    outer loop
      vertex -2.823950e-02 5.759069e-02 -2.542696e-02
      vertex -2.823950e-02 4.000000e-01 -2.542696e-02
      vertex -2.542696e-02 4.000000e-01 -2.823950e-02
    endloop
  endfacet
  facet normal -7.071068e-01 0.000000e+00 -7.071068e-01
    outer loop
      vertex -2.823950e-02 5.759069e-02 -2.542696e-02
      vertex -2.542696e-02 4.000000e-01 -2.823950e-02
      vertex -2.542696e-02 5.759069e-02 -2.823950e-02
    endloop
  endfacet
  facet normal -6.293204e-01 0.000000e+00 -7.771460e-01
    outer loop
      vertex -2.542696e-02 5.759069e-02 -2.823950e-02
      vertex -2.542696e-02 4.000000e-01 -2.823950e-02
      vertex -2.233584e-02 4.000000e-01 -3.074265e-02
    endloop
  endfacet
  facet normal -6.293204e-01 0.000000e+00 -7.771460e-01
    outer loop
      vertex -2.542696e-02 5.759069e-02 -2.823950e-02
      vertex -2.233584e-02 4.000000e-01 -3.074265e-02
      vertex -2.233584e-02 5.759069e-02 -3.074265e-02
    endloop
  endfacet
  facet normal -5.446390e-01 0.000000e+00 -8.386706e-01
    outer loop
      vertex -2.233584e-02 5.759069e-02 -3.074265e-02
      vertex -2.233584e-02 4.000000e-01 -3.074265e-02
      vertex -1.900000e-02 4.000000e-01 -3.290897e-02
    endloop
  endfacet
  facet normal -5.446390e-01 0.000000e+00 -8.386706e-01
    outer loop
      vertex -2.233584e-02 5.759069e-02 -3.074265e-02
      vertex -1.900000e-02 4.000000e-01 -3.290897e-02
      vertex -1.900000e-02 5.759069e-02 -3.290897e-02
    endloop
  endfacet
  facet normal -4.539905e-01 0.000000e+00 -8.910065e-01
    outer loop
      vertex -1.900000e-02 5.759069e-02 -3.290897e-02
      vertex -1.900000e-02 4.000000e-01 -3.290897e-02
      vertex -1.545599e-02 4.000000e-01 -3.471473e-02
    endloop
  endfacet
  facet normal -4.539905e-01 0.000000e+00 -8.910065e-01
    outer loop
      vertex -1.900000e-02 5.759069e-02 -3.290897e-02
      vertex -1.545599e-02 4.000000e-01 -3.471473e-02
      vertex -1.545599e-02 5.759069e-02 -3.471473e-02
    endloop
  endfacet
  facet normal -3.583679e-01 0.000000e+00 -9.335804e-01
    outer loop
      vertex -1.545599e-02 5.759069e-02 -3.471473e-02
      vertex -1.545599e-02 4.000000e-01 -3.471473e-02
      vertex -1.174265e-02 4.000000e-01 -3.614015e-02
    endloop
  endfacet
  facet normal -3.583679e-01 0.000000e+00 -9.335804e-01
    outer loop
      vertex -1.545599e-02 5.759069e-02 -3.471473e-02
      vertex -1.174265e-02 4.000000e-01 -3.614015e-02
      vertex -1.174265e-02 5.759069e-02 -3.614015e-02
    endloop
  endfacet
  facet normal -2.588190e-01 0.000000e+00 -9.659258e-01
    outer loop
      vertex -1.174265e-02 5.759069e-02 -3.614015e-02
      vertex -1.174265e-02 4.000000e-01 -3.614015e-02
      vertex -7.900644e-03 4.000000e-01 -3.716961e-02
    endloop
  endfacet
  facet normal -2.588190e-01 0.000000e+00 -9.659258e-01
    outer loop
      vertex -1.174265e-02 5.759069e-02 -3.614015e-02
      vertex -7.900644e-03 4.000000e-01 -3.716961e-02
      vertex -7.900644e-03 5.759069e-02 -3.716961e-02
    endloop
  endfacet
  facet normal -1.564345e-01 0.000000e+00 -9.876883e-01
    outer loop
      vertex -7.900644e-03 5.759069e-02 -3.716961e-02
      vertex -7.900644e-03 4.000000e-01 -3.716961e-02
      vertex -3.972082e-03 4.000000e-01 -3.779183e-02
    endloop
  endfacet
  facet normal -1.564345e-01 0.000000e+00 -9.876883e-01
    outer loop
      vertex -7.900644e-03 5.759069e-02 -3.716961e-02
      vertex -3.972082e-03 4.000000e-01 -3.779183e-02
      vertex -3.972082e-03 5.759069e-02 -3.779183e-02
    endloop
  endfacet
  facet normal -5.233596e-02 0.000000e+00 -9.986295e-01
    outer loop
      vertex -3.972082e-03 5.759069e-02 -3.779183e-02
      vertex -3.972082e-03 4.000000e-01 -3.779183e-02
      vertex -6.980487e-18 4.000000e-01 -3.800000e-02
    endloop
  endfacet
  facet normal -5.233596e-02 0.000000e+00 -9.986295e-01
    outer loop
      vertex -3.972082e-03 5.759069e-02 -3.779183e-02
      vertex -6.980487e-18 4.000000e-01 -3.800000e-02
      vertex -6.980487e-18 5.759069e-02 -3.800000e-02
    endloop
  endfacet
  facet normal 5.233596e-02 0.000000e+00 -9.986295e-01
    outer loop
      vertex -6.980487e-18 5.759069e-02 -3.800000e-02
      vertex -6.980487e-18 4.000000e-01 -3.800000e-02
      vertex 3.972082e-03 4.000000e-01 -3.779183e-02
    endloop
  endfacet
  facet normal 5.233596e-02 0.000000e+00 -9.986295e-01
    outer loop
      vertex -6.980487e-18 5.759069e-02 -3.800000e-02
      vertex 3.972082e-03 4.000000e-01 -3.779183e-02
      vertex 3.972082e-03 5.759069e-02 -3.779183e-02
    endloop
  endfacet
  facet normal 1.564345e-01 0.000000e+00 -9.876883e-01
    outer loop
      vertex 3.972082e-03 5.759069e-02 -3.779183e-02
      vertex 3.972082e-03 4.000000e-01 -3.779183e-02
      vertex 7.900644e-03 4.000000e-01 -3.716961e-02
    endloop
  endfacet
  facet normal 1.564345e-01 0.000000e+00 -9.876883e-01
    outer loop
      vertex 3.972082e-03 5.759069e-02 -3.779183e-02
      vertex 7.900644e-03 4.000000e-01 -3.716961e-02
      vertex 7.900644e-03 5.759069e-02 -3.716961e-02
    endloop
  endfacet
  facet normal 2.588190e-01 0.000000e+00 -9.659258e-01
    outer loop
      vertex 7.900644e-03 5.759069e-02 -3.716961e-02
      vertex 7.900644e-03 4.000000e-01 -3.716961e-02
      vertex 1.174265e-02 4.000000e-01 -3.614015e-02
    endloop
  endfacet
  facet normal 2.588190e-01 0.000000e+00 -9.659258e-01
    outer loop
      vertex 7.900644e-03 5.759069e-02 -3.716961e-02
      vertex 1.174265e-02 4.000000e-01 -3.614015e-02
      vertex 1.174265e-02 5.759069e-02 -3.614015e-02
    endloop
  endfacet
  facet normal 3.583679e-01 0.000000e+00 -9.335804e-01
    outer loop
      vertex 1.174265e-02 5.759069e-02 -3.614015e-02
      vertex 1.174265e-02 4.000000e-01 -3.614015e-02
      vertex 1.545599e-02 4.000000e-01 -3.471473e-02
    endloop
  endfacet
  facet normal 3.583679e-01 0.000000e+00 -9.335804e-01
    outer loop
      vertex 1.174265e-02 5.759069e-02 -3.614015e-02
      vertex 1.545599e-02 4.000000e-01 -3.471473e-02
      vertex 1.545599e-02 5.759069e-02 -3.471473e-02
    endloop
  endfacet
  facet normal 4.539905e-01 0.000000e+00 -8.910065e-01
    outer loop
      vertex 1.545599e-02 5.759069e-02 -3.471473e-02
      vertex 1.545599e-02 4.000000e-01 -3.471473e-02
      vertex 1.900000e-02 4.000000e-01 -3.290897e-02
    endloop
  endfacet
  facet normal 4.539905e-01 0.000000e+00 -8.910065e-01
    outer loop
      vertex 1.545599e-02 5.759069e-02 -3.471473e-02
      vertex 1.900000e-02 4.000000e-01 -3.290897e-02
      vertex 1.900000e-02 5.759069e-02 -3.290897e-02
    endloop
  endfacet
  facet normal 5.446390e-01 0.000000e+00 -8.386706e-01
    outer loop
      vertex 1.900000e-02 5.759069e-02 -3.290897e-02
      vertex 1.900000e-02 4.000000e-01 -3.290897e-02
      vertex 2.233584e-02 4.000000e-01 -3.074265e-02
    endloop
  endfacet
  facet normal 5.446390e-01 0.000000e+00 -8.386706e-01
    outer loop
      vertex 1.900000e-02 5.759069e-02 -3.290897e-02
      vertex 2.233584e-02 4.000000e-01 -3.074265e-02
      vertex 2.233584e-02 5.759069e-02 -3.074265e-02
    endloop
  endfacet
  facet normal 6.293204e-01 0.000000e+00 -7.771460e-01
    outer loop
      vertex 2.233584e-02 5.759069e-02 -3.074265e-02
      vertex 2.233584e-02 4.000000e-01 -3.074265e-02
      vertex 2.542696e-02 4.000000e-01 -2.823950e-02
    endloop
  endfacet
  facet normal 6.293204e-01 0.000000e+00 -7.771460e-01
    outer loop
      vertex 2.233584e-02 5.759069e-02 -3.074265e-02
      vertex 2.542696e-02 4.000000e-01 -2.823950e-02
      vertex 2.542696e-02 5.759069e-02 -2.823950e-02
    endloop
  endfacet
  facet normal 7.071068e-01 0.000000e+00 -7.071068e-01
    outer loop
      vertex 2.542696e-02 5.759069e-02 -2.823950e-02
      vertex 2.542696e-02 4.000000e-01 -2.823950e-02
      vertex 2.823950e-02 4.000000e-01 -2.542696e-02
    endloop
  endfacet
  facet normal 7.071068e-01 0.000000e+00 -7.071068e-01
    outer loop
      vertex 2.542696e-02 5.759069e-02 -2.823950e-02
      vertex 2.823950e-02 4.000000e-01 -2.542696e-02
      vertex 2.823950e-02 5.759069e-02 -2.542696e-02
    endloop
  endfacet
  facet normal 7.771460e-01 0.000000e+00 -6.293204e-01
    outer loop
      vertex 2.823950e-02 5.759069e-02 -2.542696e-02
      vertex 2.823950e-02 4.000000e-01 -2.542696e-02
      vertex 3.074265e-02 4.000000e-01 -2.233584e-02
    endloop
  endfacet
  facet normal 7.771460e-01 0.000000e+00 -6.293204e-01
    outer loop
      vertex 2.823950e-02 5.759069e-02 -2.542696e-02
      vertex 3.074265e-02 4.000000e-01 -2.233584e-02
      vertex 3.074265e-02 5.759069e-02 -2.233584e-02
    endloop
  endfacet
  facet normal 8.386706e-01 0.000000e+00 -5.446390e-01
    outer loop
      vertex 3.074265e-02 5.759069e-02 -2.233584e-02
      vertex 3.074265e-02 4.000000e-01 -2.233584e-02
      vertex 3.290897e-02 4.000000e-01 -1.900000e-02
    endloop
  endfacet
  facet normal 8.386706e-01 0.000000e+00 -5.446390e-01
    outer loop
      vertex 3.074265e-02 5.759069e-02 -2.233584e-02
      vertex 3.290897e-02 4.000000e-01 -1.900000e-02
      vertex 3.290897e-02 5.759069e-02 -1.900000e-02
    endloop
  endfacet
  facet normal 8.910065e-01 0.000000e+00 -4.539905e-01
    outer loop
      vertex 3.290897e-02 5.759069e-02 -1.900000e-02
      vertex 3.290897e-02 4.000000e-01 -1.900000e-02
      vertex 3.471473e-02 4.000000e-01 -1.545599e-02
    endloop
  endfacet
  facet normal 8.910065e-01 0.000000e+00 -4.539905e-01
    outer loop
      vertex 3.290897e-02 5.759069e-02 -1.900000e-02
      vertex 3.471473e-02 4.000000e-01 -1.545599e-02
      vertex 3.471473e-02 5.759069e-02 -1.545599e-02
    endloop
  endfacet
  facet normal 9.335804e-01 0.000000e+00 -3.583679e-01
    outer loop
      vertex 3.471473e-02 5.759069e-02 -1.545599e-02
      vertex 3.471473e-02 4.000000e-01 -1.545599e-02
      vertex 3.614015e-02 4.000000e-01 -1.174265e-02
    endloop
  endfacet
  facet normal 9.335804e-01 0.000000e+00 -3.583679e-01
    outer loop
      vertex 3.471473e-02 5.759069e-02 -1.545599e-02
      vertex 3.614015e-02 4.000000e-01 -1.174265e-02
      vertex 3.614015e-02 5.759069e-02 -1.174265e-02
    endloop
  endfacet
  facet normal 9.659258e-01 0.000000e+00 -2.588190e-01
    outer loop
      vertex 3.614015e-02 5.759069e-02 -1.174265e-02
      vertex 3.614015e-02 4.000000e-01 -1.174265e-02
      vertex 3.716961e-02 4.000000e-01 -7.900644e-03
    endloop
  endfacet
  facet normal 9.659258e-01 0.000000e+00 -2.588190e-01
    outer loop
      vertex 3.614015e-02 5.759069e-02 -1.174265e-02
      vertex 3.716961e-02 4.000000e-01 -7.900644e-03
      vertex 3.716961e-02 5.759069e-02 -7.900644e-03
    endloop
  endfacet
  facet normal 9.876883e-01 0.000000e+00 -1.564345e-01
    outer loop
      vertex 3.716961e-02 5.759069e-02 -7.900644e-03
      vertex 3.716961e-02 4.000000e-01 -7.900644e-03
      vertex 3.779183e-02 4.000000e-01 -3.972082e-03
    endloop
  endfacet
  facet normal 9.876883e-01 0.000000e+00 -1.564345e-01
    outer loop
      vertex 3.716961e-02 5.759069e-02 -7.900644e-03
      vertex 3.779183e-02 4.000000e-01 -3.972082e-03
      vertex 3.779183e-02 5.759069e-02 -3.972082e-03
    endloop
  endfacet
  facet normal 9.986295e-01 0.000000e+00 -5.233596e-02
    outer loop
      vertex 3.779183e-02 5.759069e-02 -3.972082e-03
      vertex 3.779183e-02 4.000000e-01 -3.972082e-03
      vertex 3.800000e-02 4.000000e-01 -9.307316e-18
    endloop
  endfacet
  facet normal 9.986295e-01 0.000000e+00 -5.233596e-02
    outer loop
      vertex 3.779183e-02 5.759069e-02 -3.972082e-03
      vertex 3.800000e-02 4.000000e-01 -9.307316e-18
      vertex 3.800000e-02 5.759069e-02 -9.307316e-18
    endloop
  endfacet
endsolid spouted_bed_V_3d
